<svg version="1.1" xmlns="http://www.w3.org/2000/svg" xmlns:xlink="http://www.w3.org/1999/xlink" width="1111" height="435"><defs></defs><g><g transform="translate(-142,-118) scale(1,1)"><rect fill="#C0C0C0" stroke="none" x="159" y="183" width="231" height="177" opacity="0.2"></rect></g><g transform="translate(-142,-118) scale(1,1)"><rect fill="#ffffff" stroke="none" x="152" y="176" width="231" height="177"></rect></g><g transform="translate(-142,-118) scale(1,1)"><path fill="none" stroke="#000000" d="M 152 176 L 383 176 L 383 353 L 152 353 L 152 176 Z Z" stroke-miterlimit="10"></path></g><g transform="translate(-142,-118) scale(1,1)"><path fill="none" stroke="#000000" d="M 152 201 L 383 201" stroke-miterlimit="10"></path></g><g transform="translate(-142,-118) scale(1,1)"><path fill="none" stroke="#000000" d="M 152 344 L 383 344" stroke-miterlimit="10"></path></g><g transform="translate(-142,-118) scale(1,1)"><g><path fill="none" stroke="none"></path><text fill="#000000" stroke="none" font-family="Arial" font-size="13px" font-style="normal" font-weight="bold" text-decoration="none" x="245" y="195.5">gendisk</text></g></g><g transform="translate(-142,-118) scale(1,1)"><g><path fill="none" stroke="none"></path><text fill="#000000" stroke="none" font-family="Arial" font-size="13px" font-style="normal" font-weight="normal" text-decoration="none" x="157" y="218.5">+int major</text></g></g><g transform="translate(-142,-118) scale(1,1)"><g><path fill="none" stroke="none"></path><text fill="#000000" stroke="none" font-family="Arial" font-size="13px" font-style="normal" font-weight="normal" text-decoration="none" x="157" y="233.5">+int first_minor</text></g></g><g transform="translate(-142,-118) scale(1,1)"><g><path fill="none" stroke="none"></path><text fill="#000000" stroke="none" font-family="Arial" font-size="13px" font-style="normal" font-weight="normal" text-decoration="none" x="157" y="248.5">+int minors</text></g></g><g transform="translate(-142,-118) scale(1,1)"><g><path fill="none" stroke="none"></path><text fill="#000000" stroke="none" font-family="Arial" font-size="13px" font-style="normal" font-weight="normal" text-decoration="none" x="157" y="263.5">+char disk_name</text></g></g><g transform="translate(-142,-118) scale(1,1)"><g><path fill="none" stroke="none"></path><text fill="#000000" stroke="none" font-family="Arial" font-size="13px" font-style="normal" font-weight="normal" text-decoration="none" x="157" y="278.5">+struct disk_part_tbl *part_tbl</text></g></g><g transform="translate(-142,-118) scale(1,1)"><g><path fill="none" stroke="none"></path><text fill="#000000" stroke="none" font-family="Arial" font-size="13px" font-style="normal" font-weight="normal" text-decoration="none" x="157" y="293.5">+struct hd_struct part0</text></g></g><g transform="translate(-142,-118) scale(1,1)"><g><path fill="none" stroke="none"></path><text fill="#000000" stroke="none" font-family="Arial" font-size="13px" font-style="normal" font-weight="normal" text-decoration="none" x="157" y="308.5">+struct block_device_operations *fops</text></g></g><g transform="translate(-142,-118) scale(1,1)"><g><path fill="none" stroke="none"></path><text fill="#000000" stroke="none" font-family="Arial" font-size="13px" font-style="normal" font-weight="normal" text-decoration="none" x="157" y="323.5">+struct request_queue *queue</text></g></g><g transform="translate(-142,-118) scale(1,1)"><g><path fill="none" stroke="none"></path><text fill="#000000" stroke="none" font-family="Arial" font-size="13px" font-style="normal" font-weight="normal" text-decoration="none" x="157" y="338.5">+void *private_data</text></g></g><g transform="translate(-142,-118) scale(1,1)"><rect fill="#C0C0C0" stroke="none" x="175" y="455" width="219" height="95" opacity="0.2"></rect></g><g transform="translate(-142,-118) scale(1,1)"><rect fill="#ffffff" stroke="none" x="168" y="448" width="219" height="95"></rect></g><g transform="translate(-142,-118) scale(1,1)"><path fill="none" stroke="#000000" d="M 168 448 L 387 448 L 387 543 L 168 543 L 168 448 Z Z" stroke-miterlimit="10"></path></g><g transform="translate(-142,-118) scale(1,1)"><path fill="none" stroke="#000000" d="M 168 473 L 387 473" stroke-miterlimit="10"></path></g><g transform="translate(-142,-118) scale(1,1)"><path fill="none" stroke="#000000" d="M 168 526 L 387 526" stroke-miterlimit="10"></path></g><g transform="translate(-142,-118) scale(1,1)"><g><path fill="none" stroke="none"></path><text fill="#000000" stroke="none" font-family="Arial" font-size="13px" font-style="normal" font-weight="bold" text-decoration="none" x="256" y="467.5">part_tbl</text></g></g><g transform="translate(-142,-118) scale(1,1)"><g><path fill="none" stroke="none"></path><text fill="#000000" stroke="none" font-family="Arial" font-size="13px" font-style="normal" font-weight="normal" text-decoration="none" x="173" y="490.5">+int len</text></g></g><g transform="translate(-142,-118) scale(1,1)"><g><path fill="none" stroke="none"></path><text fill="#000000" stroke="none" font-family="Arial" font-size="13px" font-style="normal" font-weight="normal" text-decoration="none" x="173" y="505.5">+struct hd_struct *last_lookup</text></g></g><g transform="translate(-142,-118) scale(1,1)"><g><path fill="none" stroke="none"></path><text fill="#000000" stroke="none" font-family="Arial" font-size="13px" font-style="normal" font-weight="normal" text-decoration="none" x="173" y="520.5">+struct hd_struct  *part[]</text></g></g><g transform="translate(-142,-118) scale(1,1)"><rect fill="#C0C0C0" stroke="none" x="471" y="503" width="98" height="44" opacity="0.2"></rect></g><g transform="translate(-142,-118) scale(1,1)"><rect fill="#ffffff" stroke="none" x="464" y="496" width="98" height="44"></rect></g><g transform="translate(-142,-118) scale(1,1)"><path fill="none" stroke="#000000" d="M 464 496 L 562 496 L 562 540 L 464 540 L 464 496 Z Z" stroke-miterlimit="10"></path></g><g transform="translate(-142,-118) scale(1,1)"><path fill="none" stroke="#000000" d="M 464 521 L 562 521" stroke-miterlimit="10"></path></g><g transform="translate(-142,-118) scale(1,1)"><path fill="none" stroke="#000000" d="M 464 531 L 562 531" stroke-miterlimit="10"></path></g><g transform="translate(-142,-118) scale(1,1)"><g><path fill="none" stroke="none"></path><text fill="#000000" stroke="none" font-family="Arial" font-size="13px" font-style="normal" font-weight="bold" text-decoration="none" x="486" y="515.5">hd_struct</text></g></g><g transform="translate(-142,-118) scale(1,1)"><rect fill="#C0C0C0" stroke="none" x="879" y="503" width="98" height="44" opacity="0.2"></rect></g><g transform="translate(-142,-118) scale(1,1)"><rect fill="#ffffff" stroke="none" x="872" y="496" width="98" height="44"></rect></g><g transform="translate(-142,-118) scale(1,1)"><path fill="none" stroke="#000000" d="M 872 496 L 970 496 L 970 540 L 872 540 L 872 496 Z Z" stroke-miterlimit="10"></path></g><g transform="translate(-142,-118) scale(1,1)"><path fill="none" stroke="#000000" d="M 872 521 L 970 521" stroke-miterlimit="10"></path></g><g transform="translate(-142,-118) scale(1,1)"><path fill="none" stroke="#000000" d="M 872 531 L 970 531" stroke-miterlimit="10"></path></g><g transform="translate(-142,-118) scale(1,1)"><g><path fill="none" stroke="none"></path><text fill="#000000" stroke="none" font-family="Arial" font-size="13px" font-style="normal" font-weight="bold" text-decoration="none" x="894" y="515.5">hd_struct</text></g></g><g transform="translate(-142,-118) scale(1,1)"><rect fill="#C0C0C0" stroke="none" x="743" y="503" width="98" height="44" opacity="0.2"></rect></g><g transform="translate(-142,-118) scale(1,1)"><rect fill="#ffffff" stroke="none" x="736" y="496" width="98" height="44"></rect></g><g transform="translate(-142,-118) scale(1,1)"><path fill="none" stroke="#000000" d="M 736 496 L 834 496 L 834 540 L 736 540 L 736 496 Z Z" stroke-miterlimit="10"></path></g><g transform="translate(-142,-118) scale(1,1)"><path fill="none" stroke="#000000" d="M 736 521 L 834 521" stroke-miterlimit="10"></path></g><g transform="translate(-142,-118) scale(1,1)"><path fill="none" stroke="#000000" d="M 736 531 L 834 531" stroke-miterlimit="10"></path></g><g transform="translate(-142,-118) scale(1,1)"><g><path fill="none" stroke="none"></path><text fill="#000000" stroke="none" font-family="Arial" font-size="13px" font-style="normal" font-weight="bold" text-decoration="none" x="758" y="515.5">hd_struct</text></g></g><g transform="translate(-142,-118) scale(1,1)"><rect fill="#C0C0C0" stroke="none" x="607" y="503" width="98" height="44" opacity="0.2"></rect></g><g transform="translate(-142,-118) scale(1,1)"><rect fill="#ffffff" stroke="none" x="600" y="496" width="98" height="44"></rect></g><g transform="translate(-142,-118) scale(1,1)"><path fill="none" stroke="#000000" d="M 600 496 L 698 496 L 698 540 L 600 540 L 600 496 Z Z" stroke-miterlimit="10"></path></g><g transform="translate(-142,-118) scale(1,1)"><path fill="none" stroke="#000000" d="M 600 521 L 698 521" stroke-miterlimit="10"></path></g><g transform="translate(-142,-118) scale(1,1)"><path fill="none" stroke="#000000" d="M 600 531 L 698 531" stroke-miterlimit="10"></path></g><g transform="translate(-142,-118) scale(1,1)"><g><path fill="none" stroke="none"></path><text fill="#000000" stroke="none" font-family="Arial" font-size="13px" font-style="normal" font-weight="bold" text-decoration="none" x="622" y="515.5">hd_struct</text></g></g><g transform="translate(-142,-118) scale(1,1)"><rect fill="#C0C0C0" stroke="none" x="527" y="135" width="219" height="252" opacity="0.2"></rect></g><g transform="translate(-142,-118) scale(1,1)"><rect fill="#ffffff" stroke="none" x="520" y="128" width="219" height="252"></rect></g><g transform="translate(-142,-118) scale(1,1)"><path fill="none" stroke="#000000" d="M 520 128 L 739 128 L 739 380 L 520 380 L 520 128 Z Z" stroke-miterlimit="10"></path></g><g transform="translate(-142,-118) scale(1,1)"><path fill="none" stroke="#000000" d="M 520 153 L 739 153" stroke-miterlimit="10"></path></g><g transform="translate(-142,-118) scale(1,1)"><path fill="none" stroke="#000000" d="M 520 371 L 739 371" stroke-miterlimit="10"></path></g><g transform="translate(-142,-118) scale(1,1)"><g><path fill="none" stroke="none"></path><text fill="#000000" stroke="none" font-family="Arial" font-size="13px" font-style="normal" font-weight="bold" text-decoration="none" x="592.5" y="147.5">block_device</text></g></g><g transform="translate(-142,-118) scale(1,1)"><g><path fill="none" stroke="none"></path><text fill="#000000" stroke="none" font-family="Arial" font-size="13px" font-style="normal" font-weight="normal" text-decoration="none" x="525" y="170.5">+dev_t           bd_dev</text></g></g><g transform="translate(-142,-118) scale(1,1)"><g><path fill="none" stroke="none"></path><text fill="#000000" stroke="none" font-family="Arial" font-size="13px" font-style="normal" font-weight="normal" text-decoration="none" x="525" y="185.5">+struct inode *      bd_inode</text></g></g><g transform="translate(-142,-118) scale(1,1)"><g><path fill="none" stroke="none"></path><text fill="#000000" stroke="none" font-family="Arial" font-size="13px" font-style="normal" font-weight="normal" text-decoration="none" x="525" y="200.5">+struct super_block *    bd_super</text></g></g><g transform="translate(-142,-118) scale(1,1)"><g><path fill="none" stroke="none"></path><text fill="#000000" stroke="none" font-family="Arial" font-size="13px" font-style="normal" font-weight="normal" text-decoration="none" x="525" y="215.5">+int         bd_openers</text></g></g><g transform="translate(-142,-118) scale(1,1)"><g><path fill="none" stroke="none"></path><text fill="#000000" stroke="none" font-family="Arial" font-size="13px" font-style="normal" font-weight="normal" text-decoration="none" x="525" y="230.5">+struct list_head    bd_inodes</text></g></g><g transform="translate(-142,-118) scale(1,1)"><g><path fill="none" stroke="none"></path><text fill="#000000" stroke="none" font-family="Arial" font-size="13px" font-style="normal" font-weight="normal" text-decoration="none" x="525" y="245.5">+void *          bd_holder</text></g></g><g transform="translate(-142,-118) scale(1,1)"><g><path fill="none" stroke="none"></path><text fill="#000000" stroke="none" font-family="Arial" font-size="13px" font-style="normal" font-weight="normal" text-decoration="none" x="525" y="260.5">+int         bd_holders</text></g></g><g transform="translate(-142,-118) scale(1,1)"><g><path fill="none" stroke="none"></path><text fill="#000000" stroke="none" font-family="Arial" font-size="13px" font-style="normal" font-weight="normal" text-decoration="none" x="525" y="275.5">+struct block_device *   bd_contains</text></g></g><g transform="translate(-142,-118) scale(1,1)"><g><path fill="none" stroke="none"></path><text fill="#000000" stroke="none" font-family="Arial" font-size="13px" font-style="normal" font-weight="normal" text-decoration="none" x="525" y="290.5">+unsigned        bd_block_size</text></g></g><g transform="translate(-142,-118) scale(1,1)"><g><path fill="none" stroke="none"></path><text fill="#000000" stroke="none" font-family="Arial" font-size="13px" font-style="normal" font-weight="normal" text-decoration="none" x="525" y="305.5">+struct hd_struct *  bd_part</text></g></g><g transform="translate(-142,-118) scale(1,1)"><g><path fill="none" stroke="none"></path><text fill="#000000" stroke="none" font-family="Arial" font-size="13px" font-style="normal" font-weight="normal" text-decoration="none" x="525" y="320.5">+unsigned        bd_part_count</text></g></g><g transform="translate(-142,-118) scale(1,1)"><g><path fill="none" stroke="none"></path><text fill="#000000" stroke="none" font-family="Arial" font-size="13px" font-style="normal" font-weight="normal" text-decoration="none" x="525" y="335.5">+int         bd_invalidated</text></g></g><g transform="translate(-142,-118) scale(1,1)"><g><path fill="none" stroke="none"></path><text fill="#000000" stroke="none" font-family="Arial" font-size="13px" font-style="normal" font-weight="normal" text-decoration="none" x="525" y="350.5">+struct gendisk *    bd_disk</text></g></g><g transform="translate(-142,-118) scale(1,1)"><g><path fill="none" stroke="none"></path><text fill="#000000" stroke="none" font-family="Arial" font-size="13px" font-style="normal" font-weight="normal" text-decoration="none" x="525" y="365.5">+struct list_head    bd_list;</text></g></g><g transform="translate(-142,-118) scale(1,1)"><rect fill="#C0C0C0" stroke="none" x="775" y="135" width="219" height="252" opacity="0.2"></rect></g><g transform="translate(-142,-118) scale(1,1)"><rect fill="#ffffff" stroke="none" x="768" y="128" width="219" height="252"></rect></g><g transform="translate(-142,-118) scale(1,1)"><path fill="none" stroke="#000000" d="M 768 128 L 987 128 L 987 380 L 768 380 L 768 128 Z Z" stroke-miterlimit="10"></path></g><g transform="translate(-142,-118) scale(1,1)"><path fill="none" stroke="#000000" d="M 768 153 L 987 153" stroke-miterlimit="10"></path></g><g transform="translate(-142,-118) scale(1,1)"><path fill="none" stroke="#000000" d="M 768 371 L 987 371" stroke-miterlimit="10"></path></g><g transform="translate(-142,-118) scale(1,1)"><g><path fill="none" stroke="none"></path><text fill="#000000" stroke="none" font-family="Arial" font-size="13px" font-style="normal" font-weight="bold" text-decoration="none" x="840.5" y="147.5">block_device</text></g></g><g transform="translate(-142,-118) scale(1,1)"><g><path fill="none" stroke="none"></path><text fill="#000000" stroke="none" font-family="Arial" font-size="13px" font-style="normal" font-weight="normal" text-decoration="none" x="773" y="170.5">+dev_t           bd_dev</text></g></g><g transform="translate(-142,-118) scale(1,1)"><g><path fill="none" stroke="none"></path><text fill="#000000" stroke="none" font-family="Arial" font-size="13px" font-style="normal" font-weight="normal" text-decoration="none" x="773" y="185.5">+struct inode *      bd_inode</text></g></g><g transform="translate(-142,-118) scale(1,1)"><g><path fill="none" stroke="none"></path><text fill="#000000" stroke="none" font-family="Arial" font-size="13px" font-style="normal" font-weight="normal" text-decoration="none" x="773" y="200.5">+struct super_block *    bd_super</text></g></g><g transform="translate(-142,-118) scale(1,1)"><g><path fill="none" stroke="none"></path><text fill="#000000" stroke="none" font-family="Arial" font-size="13px" font-style="normal" font-weight="normal" text-decoration="none" x="773" y="215.5">+int         bd_openers</text></g></g><g transform="translate(-142,-118) scale(1,1)"><g><path fill="none" stroke="none"></path><text fill="#000000" stroke="none" font-family="Arial" font-size="13px" font-style="normal" font-weight="normal" text-decoration="none" x="773" y="230.5">+struct list_head    bd_inodes</text></g></g><g transform="translate(-142,-118) scale(1,1)"><g><path fill="none" stroke="none"></path><text fill="#000000" stroke="none" font-family="Arial" font-size="13px" font-style="normal" font-weight="normal" text-decoration="none" x="773" y="245.5">+void *          bd_holder</text></g></g><g transform="translate(-142,-118) scale(1,1)"><g><path fill="none" stroke="none"></path><text fill="#000000" stroke="none" font-family="Arial" font-size="13px" font-style="normal" font-weight="normal" text-decoration="none" x="773" y="260.5">+int         bd_holders</text></g></g><g transform="translate(-142,-118) scale(1,1)"><g><path fill="none" stroke="none"></path><text fill="#000000" stroke="none" font-family="Arial" font-size="13px" font-style="normal" font-weight="normal" text-decoration="none" x="773" y="275.5">+struct block_device *   bd_contains</text></g></g><g transform="translate(-142,-118) scale(1,1)"><g><path fill="none" stroke="none"></path><text fill="#000000" stroke="none" font-family="Arial" font-size="13px" font-style="normal" font-weight="normal" text-decoration="none" x="773" y="290.5">+unsigned        bd_block_size</text></g></g><g transform="translate(-142,-118) scale(1,1)"><g><path fill="none" stroke="none"></path><text fill="#000000" stroke="none" font-family="Arial" font-size="13px" font-style="normal" font-weight="normal" text-decoration="none" x="773" y="305.5">+struct hd_struct *  bd_part</text></g></g><g transform="translate(-142,-118) scale(1,1)"><g><path fill="none" stroke="none"></path><text fill="#000000" stroke="none" font-family="Arial" font-size="13px" font-style="normal" font-weight="normal" text-decoration="none" x="773" y="320.5">+unsigned        bd_part_count</text></g></g><g transform="translate(-142,-118) scale(1,1)"><g><path fill="none" stroke="none"></path><text fill="#000000" stroke="none" font-family="Arial" font-size="13px" font-style="normal" font-weight="normal" text-decoration="none" x="773" y="335.5">+int         bd_invalidated</text></g></g><g transform="translate(-142,-118) scale(1,1)"><g><path fill="none" stroke="none"></path><text fill="#000000" stroke="none" font-family="Arial" font-size="13px" font-style="normal" font-weight="normal" text-decoration="none" x="773" y="350.5">+struct gendisk *    bd_disk</text></g></g><g transform="translate(-142,-118) scale(1,1)"><g><path fill="none" stroke="none"></path><text fill="#000000" stroke="none" font-family="Arial" font-size="13px" font-style="normal" font-weight="normal" text-decoration="none" x="773" y="365.5">+struct list_head    bd_list;</text></g></g><g transform="translate(-142,-118) scale(1,1)"><rect fill="#C0C0C0" stroke="none" x="1031" y="135" width="219" height="252" opacity="0.2"></rect></g><g transform="translate(-142,-118) scale(1,1)"><rect fill="#ffffff" stroke="none" x="1024" y="128" width="219" height="252"></rect></g><g transform="translate(-142,-118) scale(1,1)"><path fill="none" stroke="#000000" d="M 1024 128 L 1243 128 L 1243 380 L 1024 380 L 1024 128 Z Z" stroke-miterlimit="10"></path></g><g transform="translate(-142,-118) scale(1,1)"><path fill="none" stroke="#000000" d="M 1024 153 L 1243 153" stroke-miterlimit="10"></path></g><g transform="translate(-142,-118) scale(1,1)"><path fill="none" stroke="#000000" d="M 1024 371 L 1243 371" stroke-miterlimit="10"></path></g><g transform="translate(-142,-118) scale(1,1)"><g><path fill="none" stroke="none"></path><text fill="#000000" stroke="none" font-family="Arial" font-size="13px" font-style="normal" font-weight="bold" text-decoration="none" x="1096.5" y="147.5">block_device</text></g></g><g transform="translate(-142,-118) scale(1,1)"><g><path fill="none" stroke="none"></path><text fill="#000000" stroke="none" font-family="Arial" font-size="13px" font-style="normal" font-weight="normal" text-decoration="none" x="1029" y="170.5">+dev_t           bd_dev</text></g></g><g transform="translate(-142,-118) scale(1,1)"><g><path fill="none" stroke="none"></path><text fill="#000000" stroke="none" font-family="Arial" font-size="13px" font-style="normal" font-weight="normal" text-decoration="none" x="1029" y="185.5">+struct inode *      bd_inode</text></g></g><g transform="translate(-142,-118) scale(1,1)"><g><path fill="none" stroke="none"></path><text fill="#000000" stroke="none" font-family="Arial" font-size="13px" font-style="normal" font-weight="normal" text-decoration="none" x="1029" y="200.5">+struct super_block *    bd_super</text></g></g><g transform="translate(-142,-118) scale(1,1)"><g><path fill="none" stroke="none"></path><text fill="#000000" stroke="none" font-family="Arial" font-size="13px" font-style="normal" font-weight="normal" text-decoration="none" x="1029" y="215.5">+int         bd_openers</text></g></g><g transform="translate(-142,-118) scale(1,1)"><g><path fill="none" stroke="none"></path><text fill="#000000" stroke="none" font-family="Arial" font-size="13px" font-style="normal" font-weight="normal" text-decoration="none" x="1029" y="230.5">+struct list_head    bd_inodes</text></g></g><g transform="translate(-142,-118) scale(1,1)"><g><path fill="none" stroke="none"></path><text fill="#000000" stroke="none" font-family="Arial" font-size="13px" font-style="normal" font-weight="normal" text-decoration="none" x="1029" y="245.5">+void *          bd_holder</text></g></g><g transform="translate(-142,-118) scale(1,1)"><g><path fill="none" stroke="none"></path><text fill="#000000" stroke="none" font-family="Arial" font-size="13px" font-style="normal" font-weight="normal" text-decoration="none" x="1029" y="260.5">+int         bd_holders</text></g></g><g transform="translate(-142,-118) scale(1,1)"><g><path fill="none" stroke="none"></path><text fill="#000000" stroke="none" font-family="Arial" font-size="13px" font-style="normal" font-weight="normal" text-decoration="none" x="1029" y="275.5">+struct block_device *   bd_contains</text></g></g><g transform="translate(-142,-118) scale(1,1)"><g><path fill="none" stroke="none"></path><text fill="#000000" stroke="none" font-family="Arial" font-size="13px" font-style="normal" font-weight="normal" text-decoration="none" x="1029" y="290.5">+unsigned        bd_block_size</text></g></g><g transform="translate(-142,-118) scale(1,1)"><g><path fill="none" stroke="none"></path><text fill="#000000" stroke="none" font-family="Arial" font-size="13px" font-style="normal" font-weight="normal" text-decoration="none" x="1029" y="305.5">+struct hd_struct *  bd_part</text></g></g><g transform="translate(-142,-118) scale(1,1)"><g><path fill="none" stroke="none"></path><text fill="#000000" stroke="none" font-family="Arial" font-size="13px" font-style="normal" font-weight="normal" text-decoration="none" x="1029" y="320.5">+unsigned        bd_part_count</text></g></g><g transform="translate(-142,-118) scale(1,1)"><g><path fill="none" stroke="none"></path><text fill="#000000" stroke="none" font-family="Arial" font-size="13px" font-style="normal" font-weight="normal" text-decoration="none" x="1029" y="335.5">+int         bd_invalidated</text></g></g><g transform="translate(-142,-118) scale(1,1)"><g><path fill="none" stroke="none"></path><text fill="#000000" stroke="none" font-family="Arial" font-size="13px" font-style="normal" font-weight="normal" text-decoration="none" x="1029" y="350.5">+struct gendisk *    bd_disk</text></g></g><g transform="translate(-142,-118) scale(1,1)"><g><path fill="none" stroke="none"></path><text fill="#000000" stroke="none" font-family="Arial" font-size="13px" font-style="normal" font-weight="normal" text-decoration="none" x="1029" y="365.5">+struct list_head    bd_list;</text></g></g></g></svg>